# xmcd CD database file
#
# Track frame offsets:
#	150
#	17826
#	46543
#	67300
#	90612
#	111284
#	130360
#	153550
#	170658
#	190498
#	208683
#	226552
#	248855
#	269595
#	289997
#	309405
#
# Disc length: 4602 seconds
#
# Revision: 1
# Processed by: cddbd v1.5.1PL2 Copyright (c) Steve Scherf et al.
# Submitted via: CDex 1.51
#
DISCID=eb11f810
DTITLE=Salsabor vol.2 - Cd 3
DYEAR=2005
DGENRE=Salsa
TTITLE0=Oscar D'León - Me voy pa Cali
TTITLE1=Ángel López - El cantante
TTITLE2=Cheo Feliciano - Lindo Yambu
TTITLE3=Choco Orta - Voy a apagar la luz
TTITLE4=Eddie Santiago - Loco por tu amor
TTITLE5=Miles Peña - Dale Gasolina
TTITLE6=Willie González - Pequeñas cosas
TTITLE7=Los hijos de los célebres - El negro bembón
TTITLE8=Grupo imagen - Después de ti
TTITLE9=Pedro Jesús - Tu vida y la mía
TTITLE10=Isla Caliente - Preparen candela
TTITLE11=Luisito Carrión - Cúlpame
TTITLE12=Maelo - Apasionadamente
TTITLE13=Pasión juvenil - Amor mio
TTITLE14=Kittin - Si depeniera de mi
TTITLE15=Pedro Arroyo  - Siento
EXTD=YEAR: 2005
EXTT0=
EXTT1=
EXTT2=
EXTT3=
EXTT4=
EXTT5=
EXTT6=
EXTT7=
EXTT8=
EXTT9=
EXTT10=
EXTT11=
EXTT12=
EXTT13=
EXTT14=
EXTT15=
PLAYORDER=
